<?xml version="1.0"?>
<svg xmlns="http://www.w3.org/2000/svg" viewBox="0 0 512 512" width="512" height="512"><g id="Solid"><path d="M453.693,249.062C468.391,258.838,480,266.56,480,284.9c0,15.6-3.695,26.481-11.3,33.275-11.863,10.6-32.711,10.741-54.275,8.641a50.219,50.219,0,0,0-2.92-8.443,38.6,38.6,0,0,0-23.022-20.783c-15.524-5.237-26.071-1.6-36.273,1.915-8.006,2.761-16.286,5.615-29.1,5.615a21.181,21.181,0,0,1-5.405-.694c.157-.08.309-.15.467-.234a47.854,47.854,0,0,0,9.949-6.759c12.54-8.068,25.067-16.271,37.332-24.434a135.156,135.156,0,0,0,62.138,15.546,91.6,91.6,0,0,0,19.218-1.752l-3.618-15.586c-.307.072-28.032,6.2-62.242-8.564,22.095-14.876,36.485-24.981,36.651-25.1l-9.2-13.09c-.165.116-14.412,10.12-36.339,24.884-8.8-34.948,6.274-58.887,6.97-59.964l-13.376-8.78c-.9,1.371-21.352,33.158-7.6,78.11q-7.1,4.734-14.319,9.478c2.9-17.915-6.483-31.265-13.655-41.46-6.15-8.742-9.847-14.385-8.407-20.02,2.585-10.159,10.446-17.021,19.549-24.968,8.587-7.5,18.2-15.915,23.238-28.2a28.244,28.244,0,0,1,4.38-1.12,30.759,30.759,0,0,1,14.3,1.04c9.5,2.815,15.618,7.02,19.843,13.64,3.716,5.811,5.949,13.291,8.535,21.952A204.226,204.226,0,0,0,420,213.39c.69,1.553,1.406,3.1,2.136,4.609C429.375,232.886,442.3,241.48,453.693,249.062ZM344.35,40c24.669,0,31.611,12.877,41.22,30.7,5.813,10.783,12.4,23,24.092,32.056,10.957,8.485,22.2,13.123,32.127,17.216,19.939,8.223,30.922,12.753,30.174,40.142-.474,17.453-12.215,24.374-31.5,33.7-3.064,1.481-6.18,2.989-9.188,4.592-1.7-4.769-3.081-9.4-4.433-13.928-1.56-5.228-3.087-10.285-4.967-15.076,19-3.265,29.978-10.361,30.519-10.717l-8.8-13.366c-.114.075-11.125,7.006-30.056,9.1-6.154-7.692-14.488-12.932-25.861-16.3-.656-.194-1.31-.359-1.964-.527l19.936-19.936-11.314-11.314-26.4,26.4a65.244,65.244,0,0,0-1-8.982c-1.589-8.874-4.655-15.995-9.341-21.665-1.21-25.112,3.236-35.192,3.283-35.295l-.063.129-14.308-7.16c-.565,1.129-4.678,10.044-5.089,30.541a142.156,142.156,0,0,0-19.268-6.44c-5.6-1.584-11.334-3.212-17.172-5.381C313.284,52.282,325.9,40,344.35,40ZM191.857,43.611c10.906-11.582,29.744-15.726,44.083-8.392,19.813,10.133,26.718,35.593,44.471,49.012,10.469,7.913,23.719,10.9,36.418,14.211,8.554,2.229,17.322,4.83,24.111,10.492a32.828,32.828,0,0,1,10.567,32.482c-3.45,13.7-15.224,23.382-25.69,32.875s-20.941,21.479-20.3,35.6c.575,12.729,9.972,23,16.516,33.937,11.032,18.432,4.94,39.08-14.755,48.143a10.564,10.564,0,0,1-5.474,1.268c-2.189-.245-4.044-1.645-5.856-2.9-20.263-13.983-49.626-13.021-68.93,2.258-25.367,20.078-30.629,58.042-55.517,78.712-14.417,11.973-33.728,16.515-52.456,17.2,4.549-17.6,10.306-35.576,22.423-49.129,21.183-23.693,57.725-29.486,77.6-54.29a60.21,60.21,0,0,0,13-40.446A132.962,132.962,0,0,0,289.3,227.98l-8.564-13.488a137.125,137.125,0,0,1-39.018,13.422c-5.579,1.015-12.251,1.317-15.933-3-4.376-5.125-1.55-12.928,1.444-18.966l11.845-23.887a9.88,9.88,0,0,1,2.714-3.8c1.554-1.13,3.6-1.25,5.513-1.364a159,159,0,0,0,80.5-27.769l-9.027-13.179a144.733,144.733,0,0,1-69.379,24.769L277,98.89l-14.89-5.663-13.731,30.29a78.216,78.216,0,0,1-20.545-65.6L212.21,54.461a94.7,94.7,0,0,0,24.737,80.36c1.355,1.406,2.819,2.888,3.2,4.8.4,2.037-.521,4.076-1.419,5.947q-13.6,28.34-27.2,56.679c-6.26-8.863-5.346-20.922-2.441-31.377s7.553-20.612,7.988-31.455c.7-17.413-10.919-34.626-27.33-40.492-2.371-.848-5.024-1.626-6.395-3.738a10.236,10.236,0,0,1-1.2-4.939c-.926-13.2-1.71-27.146,4.279-38.942A33.069,33.069,0,0,1,191.857,43.611ZM68.822,303.949q1.4-2.6,2.973-5.111a110.417,110.417,0,0,0,88.185-25.9l-10.29-12.214A94.306,94.306,0,0,1,77.455,283.35l12.393-31.361a19.329,19.329,0,0,1,3.48-6.337c1.785-1.9,4.243-2.987,6.608-4.082A169.022,169.022,0,0,0,177.2,168.71l-14.015-7.638a157.206,157.206,0,0,1-63.909,63.1,156.828,156.828,0,0,0,4.345-47.906c-.149-2.341-.33-4.8.67-6.926a14.254,14.254,0,0,1,3.952-4.415,115.853,115.853,0,0,0,34.287-51.079l-15.145-5.067a103.357,103.357,0,0,1-26.806,41.662A397.361,397.361,0,0,0,87.2,99.759l-15.244,5.564C95.763,162.36,90.662,230.629,58.641,283.494c-17.89-11.358-23.438-38.3-11.49-55.8,8.122-11.9,23.047-20.221,24.836-34.514,1.9-15.166-11.953-26.951-22.564-37.952-8-8.295-14.985-18.154-17.075-29.488s1.712-24.295,11.406-30.528c8.368-5.382,19.816-5.249,27.063-12.066,8.927-8.4,7.282-22.927,12.277-34.119a29.815,29.815,0,0,1,55.63,3.091c4.725,14.811-2.354,32.124,4.745,45.954,9.679,18.856,30.551,8.653,45.179,18.143a26.2,26.2,0,0,1,11.7,16.773c1.788,9.583-1.856,19.226-4.826,28.511-4.159,13-7.048,27.3-2.35,40.123,5.129,14,18.563,24.065,22.27,38.5,4.731,18.43-8.254,37.09-23.829,48.02s-34.135,17.168-49.26,28.713c-31.887,24.338-42.838,67.992-41.54,108.085A91.352,91.352,0,0,1,68.822,303.949ZM64,476.686,35.313,448,44,439.313l14.343,14.344,11.314-11.314L55.313,428l12.015-12.015A149.524,149.524,0,0,0,97.746,442.94Zm383.579-43.637c-6.7,1.205-13.217,2.611-17.977,7.263-7.4,7.228-7.237,19.268-12.877,27.935-5.5,8.454-16.193,12.629-26.256,11.972s-19.469-5.561-27.23-12c-7.245-6.013-13.291-13.381-20.664-19.237s-16.713-10.226-26-8.706c-14.659,2.4-23.161,17.709-35.721,25.64-17.231,10.88-42.851,4.94-53.538-12.412,53.218-32.215,121.914-37.369,179.342-13.454l5.566-15.268-23.178-7.3a51.639,51.639,0,0,1,18.97-16.39l-6.028-14.818a66.169,66.169,0,0,0-26.169,22.2c-1.1,1.6-2.222,3.325-3.98,4.15-2.13,1-4.627.421-6.916-.126a166.363,166.363,0,0,0-55.664-3.657,83.463,83.463,0,0,1,47-55.65l-4.02-15.592a99.371,99.371,0,0,0-58.445,67.35c-.494,2.012-.974,4.137-2.361,5.676-1.561,1.732-3.96,2.382-6.215,2.977a306.612,306.612,0,0,0-39.663,13.426c-4.754-32.952,9.571-65.628,26.709-94.17l-12.925-8.832a161.224,161.224,0,0,0-29.663,109.314,132.045,132.045,0,0,1-105.007,6.519c-2.287-.844-4.688-1.859-6.058-3.876-1.309-1.927-1.423-4.4-1.493-6.726-.174-5.732-.633-11.535-.522-17.267.133-6.928-.735-6.008,5.087-7.529,9.348-2.441,19.428-1.33,29.019-4.415a92.438,92.438,0,0,0,46.21-32.969c10.965-15.026,17.133-33.114,28.048-48.177s29.465-27.313,47.387-22.33c12.12,3.369,20.925,13.709,32.051,19.578a47.218,47.218,0,0,0,27.248,5.109c10.948-1.262,21.088-6.318,31.853-8.679s23.58-1.276,30.509,7.294c9.781,12.1,2.879,32.3,13.188,43.955,6,6.777,15.951,8.289,25,8.108s18.326-1.589,26.99,1.023a30.074,30.074,0,0,1,2.457,56.73C457.228,431.433,452.355,432.19,447.579,433.049Z"/></g></svg>
