<svg id="Capa_1" enable-background="new 0 0 512 512" height="512" viewBox="0 0 512 512" width="512" xmlns="http://www.w3.org/2000/svg"><g><path d="m480.155 12.551c-1.368-8.187-9.099-13.717-17.271-12.341l-89.9 15.079c-6.176 1.036-11.06 5.807-12.25 11.967l-11.973 61.973 30.558-.028-34.839 180.327h75.83v-165.322c0-8.323-6.747-15.029-15-15.029-15.391.012-10.604.008-25.985.02l8.884-45.985 79.629-13.357c8.17-1.37 13.686-9.117 12.317-17.304z"/><path d="m300.191 498.824c-1.549 8.005-9.249 13.468-17.58 11.903-8.13-1.583-13.45-9.468-11.88-17.614l37.39-193.527h-187.81v137.287c0 41.421 33.64 75.126 74.98 75.126h150.04c41.35 0 74.98-33.706 74.98-75.126v-137.286h-81.63zm-104.73-138.169c-8.26 0-14.95-6.703-14.95-14.979s6.69-14.979 14.95-14.979 14.95 6.703 14.95 14.979-6.69 14.979-14.95 14.979zm44.95 90.176c-8.26 0-14.95-6.703-14.95-14.979s6.69-14.979 14.95-14.979 14.95 6.703 14.95 14.979-6.69 14.979-14.95 14.979zm15.05-60.117c-8.26 0-14.95-6.703-14.95-14.979s6.69-14.979 14.95-14.979 14.95 6.703 14.95 14.979-6.69 14.979-14.95 14.979z"/><path d="m120.311 269.528h193.62l34.83-180.301-213.46.2c-8.28 0-14.99 6.733-14.99 15.029z"/><path d="m31.638 88.929h61.426c.489-1.331 1.04-2.632 1.647-3.901l-43.494-43.579c-10.143 13.663-17.048 29.873-19.579 47.48z"/><path d="m48.724 162.944 41.589-41.67v-2.286h-58.677c2.318 16.119 8.309 31.061 17.088 43.956z"/><path d="m120.313.082c-17.817 2.571-34.199 9.647-47.953 20.042l43.565 43.65c1.422-.683 2.888-1.288 4.387-1.821v-61.871z"/><path d="m216.334 37.515-21.754 21.797 35.506-.033c-3.693-7.832-8.327-15.135-13.752-21.764z"/><path d="m194.181 17.203c-12.869-8.796-27.78-14.8-43.868-17.122v59.271l1.803-.002z"/><path d="m90.313 198.726v-34.943l-21.316 21.357c6.502 5.341 13.652 9.917 21.316 13.586z"/></g></svg>