<?xml version="1.0" encoding="iso-8859-1"?>
<!-- Generator: Adobe Illustrator 19.0.0, SVG Export Plug-In . SVG Version: 6.00 Build 0)  -->
<svg version="1.1" id="Capa_1" xmlns="http://www.w3.org/2000/svg" xmlns:xlink="http://www.w3.org/1999/xlink" x="0px" y="0px"
	 viewBox="0 0 512 512" style="enable-background:new 0 0 512 512;" xml:space="preserve">
<g>
	<g>
		<g>
			<path d="M456.064,106.677c-14.933,0-28.949,5.803-39.531,16.384l-21.867,21.867l79.083,79.083l21.867-21.867
				c10.56-10.56,16.384-24.576,16.384-39.552C512,131.744,486.933,106.677,456.064,106.677z"/>
			<path d="M96,85.344h192c5.888,0,10.667-4.779,10.667-10.667V53.344c0-17.643-14.336-32-32-32h-37.845
				C221.291,8.352,207.339,0.011,192,0.011s-29.291,8.32-36.821,21.333h-37.845c-17.621,0-32,14.357-32,32v21.333
				C85.333,80.565,90.112,85.344,96,85.344z"/>
			<path d="M195.115,423.563c2.048,2.027,4.779,3.115,7.552,3.115c0.875,0,1.728-0.107,2.581-0.32l77.504-19.371
				c-0.832-1.301-1.472-2.752-1.664-4.395c-0.128-0.96-3.691-25.493-29.717-47.168c-15.189-12.672-29.824-17.536-39.701-19.456
				l-19.371,77.44C191.403,417.056,192.491,420.896,195.115,423.563z"/>
			<path d="M222.827,316.789c12.011,3.264,27.029,9.557,42.24,22.251c26.901,22.421,34.517,47.872,36.523,57.173l157.12-157.12
				l-79.104-79.083L222.827,316.789z"/>
			<path d="M377.429,359.819c-3.989-1.664-8.555-0.747-11.627,2.304l-55.189,55.168c-4.096,4.096-9.259,7.019-14.869,8.427
				l-85.333,21.333c-10.901,2.709-22.507-0.512-30.379-8.427c-7.915-7.915-11.136-19.541-8.427-30.379l21.333-85.333
				c1.387-5.611,4.309-10.752,8.427-14.869l179.499-179.499c2.027-2.005,3.136-4.715,3.136-7.552V74.656c0-17.643-14.357-32-32-32
				h-21.333c-5.888,0-10.667,4.779-10.667,10.667v21.333c0,17.643-14.357,32-32,32H96c-17.643,0-32-14.357-32-32V53.323
				c0-5.888-4.779-10.667-10.667-10.667H32c-17.643,0-32,14.357-32,32v405.333c0,17.643,14.357,32,32,32h320
				c17.643,0,32-14.357,32-32V369.653C384,365.365,381.397,361.461,377.429,359.819z M74.667,437.344
				c-11.755,0-21.333-9.579-21.333-21.333c0-11.755,9.579-21.333,21.333-21.333c11.755,0,21.333,9.579,21.333,21.333
				C96,427.765,86.443,437.344,74.667,437.344z M74.667,352.011c-11.755,0-21.333-9.579-21.333-21.333s9.579-21.333,21.333-21.333
				c11.755,0,21.333,9.579,21.333,21.333S86.443,352.011,74.667,352.011z M74.667,266.677c-11.755,0-21.333-9.579-21.333-21.333
				c0-11.755,9.579-21.333,21.333-21.333c11.755,0,21.333,9.579,21.333,21.333C96,257.099,86.443,266.677,74.667,266.677z
				 M74.667,181.344c-11.755,0-21.333-9.579-21.333-21.333s9.579-21.333,21.333-21.333c11.755,0,21.333,9.579,21.333,21.333
				S86.443,181.344,74.667,181.344z M138.667,149.344h170.667c5.888,0,10.667,4.779,10.667,10.667s-4.779,10.667-10.667,10.667
				H138.667c-5.888,0-10.667-4.779-10.667-10.667S132.779,149.344,138.667,149.344z M138.667,234.677H224
				c5.888,0,10.667,4.779,10.667,10.667s-4.779,10.667-10.667,10.667h-85.333c-5.888,0-10.667-4.779-10.667-10.667
				S132.779,234.677,138.667,234.677z M149.333,426.677h-10.667c-5.888,0-10.667-4.779-10.667-10.667
				c0-5.888,4.779-10.667,10.667-10.667h10.667c5.888,0,10.667,4.779,10.667,10.667C160,421.899,155.221,426.677,149.333,426.677z
				 M160,341.344h-21.333c-5.888,0-10.667-4.779-10.667-10.667s4.779-10.667,10.667-10.667H160c5.888,0,10.667,4.779,10.667,10.667
				S165.888,341.344,160,341.344z"/>
		</g>
	</g>
</g>
<g>
</g>
<g>
</g>
<g>
</g>
<g>
</g>
<g>
</g>
<g>
</g>
<g>
</g>
<g>
</g>
<g>
</g>
<g>
</g>
<g>
</g>
<g>
</g>
<g>
</g>
<g>
</g>
<g>
</g>
</svg>
