<svg width="512" height="512" viewBox="0 0 512 512" fill="none" xmlns="http://www.w3.org/2000/svg">
<path d="M511.909 170.667H0V192C0 203.316 4.49523 214.168 12.4968 222.17C20.4983 230.171 31.3508 234.667 42.6667 234.667H106.667C117.983 234.667 128.835 230.171 136.837 222.17C144.838 214.168 149.333 203.316 149.333 192C149.333 203.316 153.829 214.168 161.83 222.17C169.832 230.171 180.684 234.667 192 234.667H320C331.316 234.667 342.168 230.171 350.17 222.17C358.171 214.168 362.667 203.316 362.667 192C362.667 203.316 367.162 214.168 375.163 222.17C383.165 230.171 394.017 234.667 405.333 234.667H469.333C480.649 234.667 491.502 230.171 499.503 222.17C507.505 214.168 512 203.316 512 192V170.667H511.909ZM506.757 149.333L468.512 15.4667C467.237 11.0103 464.546 7.09027 460.845 4.29967C457.144 1.50908 452.635 -0.000258482 448 3.32027e-08H350.288L380.155 149.333H506.757ZM161.712 3.32027e-08H64C59.3649 -0.000258482 54.8558 1.50908 51.1549 4.29967C47.454 7.09027 44.7627 11.0103 43.488 15.4667L5.24267 149.333H131.845L161.712 3.32027e-08ZM306.779 3.32027e-08H205.221L175.355 149.333H336.645L306.779 3.32027e-08ZM405.333 256C389.581 256.013 374.382 250.194 362.667 239.664C350.951 250.194 335.752 256.013 320 256H192C176.248 256.013 161.049 250.194 149.333 239.664C137.618 250.194 122.419 256.013 106.667 256H42.6667C35.3944 255.985 28.1786 254.722 21.3333 252.267V490.667C21.3333 496.325 23.5809 501.751 27.5817 505.752C31.5825 509.752 37.0087 512 42.6667 512H85.3333V320C85.3333 314.342 87.581 308.916 91.5817 304.915C95.5825 300.914 101.009 298.667 106.667 298.667H213.333C218.991 298.667 224.418 300.914 228.418 304.915C232.419 308.916 234.667 314.342 234.667 320V512H469.333C474.991 512 480.418 509.752 484.418 505.752C488.419 501.751 490.667 496.325 490.667 490.667V252.267C483.821 254.722 476.606 255.985 469.333 256H405.333ZM426.667 384C426.667 389.658 424.419 395.084 420.418 399.085C416.418 403.086 410.991 405.333 405.333 405.333H298.667C293.009 405.333 287.583 403.086 283.582 399.085C279.581 395.084 277.333 389.658 277.333 384V320C277.333 314.342 279.581 308.916 283.582 304.915C287.583 300.914 293.009 298.667 298.667 298.667H405.333C410.991 298.667 416.418 300.914 420.418 304.915C424.419 308.916 426.667 314.342 426.667 320V384Z" fill="black"/>
</svg>
